<?xml version="1.0" standalone="no"?>
<!DOCTYPE svg PUBLIC "-//W3C//DTD SVG 20010904//EN" "http://www.w3.org/TR/2001/REC-SVG-20010904/DTD/svg10.dtd">
<svg version="1.0" xmlns="http://www.w3.org/2000/svg" width="516.000000pt" height="516.000000pt" viewBox="0 0 516.000000 516.000000" preserveAspectRatio="xMidYMid meet">
    <g transform="translate(0.000000,516.000000) scale(0.100000,-0.100000)" fill="#000000" stroke="none">
        <path d="M2495 4826 c-55 -25 -104 -74 -135 -136 -11 -21 -105 -292 -210 -601 -104 -309 -201 -582 -215 -605 -30 -52 -94 -106 -161 -136 -56 -26 -6 -23 -824 -37 -481 -8 -497 -9 -555 -31 -184 -70 -218 -268 -72 -413 23 -23 252 -200 509 -394 256 -194 480 -369 497 -390 46 -56 74 -136 75 -218 1 -64 -15 -121 -176 -645 -98 -316 -181 -600 -184 -631 -15 -128 56 -243 165 -269 65 -15 121 -7 197 29 32 16 272 180 532 365 260 184 487 344 505 353 40 22 224 25 273 5 17 -7 249 -168 515 -358 266 -189 508 -355 537 -369 138 -67 274 -29 333 92 19 39 23 63 22 128 -1 74 -16 128 -183 670 -169 548 -181 594 -176 646 8 87 41 163 94 218 26 27 257 207 514 401 257 193 480 368 496 388 52 66 66 103 67 172 0 80 -24 131 -84 177 -82 63 -96 65 -636 74 -816 14 -763 11 -819 37 -67 30 -131 84 -161 136 -14 23 -111 296 -215 605 -105 309 -199 580 -210 601 -48 93 -141 160 -225 160 -22 0 -63 -11 -90 -24z m260 -951 c91 -269 180 -514 197 -543 90 -159 280 -291 459 -322 36 -6 283 -14 568 -18 l504 -7 -421 -319 c-291 -219 -435 -334 -463 -370 -114 -142 -174 -349 -150 -513 7 -43 78 -295 160 -561 81 -265 147 -482 145 -482 -2 0 -189 132 -417 294 -227 161 -432 303 -456 315 -161 83 -444 80 -599 -4 -26 -14 -230 -156 -455 -315 -224 -160 -409 -290 -411 -290 -1 0 67 226 152 503 l155 502 0 105 c1 128 -17 201 -78 326 -29 59 -62 109 -97 145 -29 30 -235 191 -457 359 l-404 305 504 7 c290 4 532 12 569 18 177 31 370 166 460 323 16 28 104 273 196 544 92 272 168 492 170 490 2 -1 78 -223 169 -492z"/>
    </g>
</svg>
