<?xml version="1.0" standalone="no"?>
<!DOCTYPE svg PUBLIC "-//W3C//DTD SVG 20010904//EN" "http://www.w3.org/TR/2001/REC-SVG-20010904/DTD/svg10.dtd">
<svg version="1.0" xmlns="http://www.w3.org/2000/svg" width="516.000000pt" height="516.000000pt" viewBox="0 0 516.000000 516.000000" preserveAspectRatio="xMidYMid meet">
    <g transform="translate(0.000000,516.000000) scale(0.100000,-0.100000)" fill="#000000" stroke="none">
        <path d="M2518 4841 c-72 -23 -123 -72 -168 -160 -12 -25 -109 -298 -215 -608 -126 -369 -202 -577 -220 -604 -16 -22 -53 -58 -81 -78 -97 -69 -90 -69 -779 -79 -680 -10 -678 -10 -764 -73 -60 -43 -96 -122 -88 -196 6 -61 40 -125 94 -179 19 -20 247 -194 507 -388 259 -194 483 -366 498 -382 44 -47 80 -139 85 -213 4 -63 -4 -93 -178 -651 -174 -558 -182 -589 -183 -670 -1 -70 3 -92 21 -127 66 -123 213 -155 357 -78 25 13 264 178 531 366 328 230 501 346 532 355 61 18 167 18 229 -1 35 -11 191 -115 539 -361 270 -191 513 -357 542 -370 136 -65 274 -28 335 89 18 34 22 58 22 127 -1 82 -8 109 -183 670 -173 557 -182 588 -178 651 5 74 41 166 85 213 15 16 248 194 517 396 413 309 496 375 528 421 63 92 72 161 33 246 -16 34 -39 63 -67 83 -83 60 -97 62 -639 71 -857 14 -777 10 -843 43 -83 40 -150 112 -181 194 -14 37 -104 297 -200 578 -174 511 -197 570 -244 632 -52 68 -168 107 -244 83z m232 -961 c89 -261 176 -502 194 -535 41 -79 162 -201 251 -253 132 -77 167 -84 460 -93 143 -4 389 -8 548 -8 158 -1 287 -4 286 -8 0 -5 -185 -145 -411 -313 -225 -168 -430 -327 -454 -354 -59 -65 -109 -151 -142 -245 -23 -67 -26 -91 -27 -206 l0 -130 153 -493 c85 -272 152 -495 150 -497 -2 -2 -187 127 -413 286 -225 159 -437 303 -471 319 -75 36 -171 60 -246 60 l-58 0 0 613 c0 610 11 2339 15 2335 2 -2 76 -217 165 -478z"/>
    </g>
</svg>
