<?xml version="1.0" standalone="no"?>
<!DOCTYPE svg PUBLIC "-//W3C//DTD SVG 20010904//EN" "http://www.w3.org/TR/2001/REC-SVG-20010904/DTD/svg10.dtd">
<svg version="1.0" xmlns="http://www.w3.org/2000/svg" width="516.000000pt" height="516.000000pt" viewBox="0 0 516.000000 516.000000" preserveAspectRatio="xMidYMid meet">
    <g transform="translate(0.000000,516.000000) scale(0.100000,-0.100000)" fill="#000000" stroke="none">
        <path d="M2495 4846 c-57 -26 -104 -75 -139 -144 -13 -26 -112 -306 -219 -621 -209 -613 -208 -611 -301 -682 -92 -70 -73 -68 -768 -79 -591 -10 -631 -12 -695 -31 -54 -17 -77 -31 -114 -69 -93 -95 -88 -220 14 -336 17 -21 255 -205 528 -409 539 -405 542 -408 574 -530 8 -32 15 -76 15 -97 0 -21 -81 -302 -181 -626 -198 -640 -207 -681 -175 -780 21 -63 86 -126 147 -142 62 -17 138 -4 217 36 37 19 281 185 542 370 261 184 491 343 510 352 48 22 221 22 270 1 19 -9 253 -170 520 -359 267 -188 513 -356 546 -372 117 -55 213 -47 289 23 61 57 79 108 73 211 -5 71 -30 163 -182 653 -97 313 -179 586 -182 606 -9 52 13 145 49 213 31 58 45 70 527 431 279 209 515 394 542 423 144 161 79 358 -133 410 -30 8 -274 15 -664 22 -340 6 -629 13 -644 17 -77 18 -177 91 -215 156 -14 23 -113 301 -221 617 -108 316 -206 591 -217 610 -53 89 -144 150 -223 150 -22 0 -63 -11 -90 -24z"/>
    </g>
</svg>
